Coordinates
version=1
nRows=7
nColumns=63
inDegrees=yes

Units are S.I. units (second, meters, Newtons, ...)
If the header above contains a line with 'inDegrees', this indicates whether rotational values are in degrees (yes) or radians (no).

endheader
time	pelvis_tilt	pelvis_list	pelvis_rotation	pelvis_tx	pelvis_ty	pelvis_tz	hip_flexion_r	hip_adduction_r	hip_rotation_r	knee_angle_r	knee_angle_r_beta	ankle_angle_r	subtalar_angle_r	mtp_angle_r	hip_flexion_l	hip_adduction_l	hip_rotation_l	knee_angle_l	knee_angle_l_beta	ankle_angle_l	subtalar_angle_l	mtp_angle_l	L5_S1_Flex_Ext	L5_S1_Lat_Bending	L5_S1_axial_rotation	L4_L5_Flex_Ext	L4_L5_Lat_Bending	L4_L5_axial_rotation	L3_L4_Flex_Ext	L3_L4_Lat_Bending	L3_L4_axial_rotation	L2_L3_Flex_Ext	L2_L3_Lat_Bending	L2_L3_axial_rotation	L1_L2_Flex_Ext	L1_L2_Lat_Bending	L1_L2_axial_rotation	L1_T12_Flex_Ext	L1_T12_Lat_Bending	L1_T12_axial_rotation	Abs_r3	Abs_r2	Abs_r1	Abs_t1	Abs_t2	neck_flexion	neck_bending	neck_rotation	arm_flex_r	arm_add_r	arm_rot_r	elbow_flex_r	pro_sup_r	wrist_flex_r	wrist_dev_r	arm_flex_l	arm_add_l	arm_rot_l	elbow_flex_l	pro_sup_l	wrist_flex_l	wrist_dev_l
      1.91489362	     -1.35214461	      0.66317399	    106.73724467	      0.23571388	      0.85802342	      0.73660593	     -1.58436227	     -0.56607744	    -12.14025911	     13.43917378	      0.23455783	     35.37044207	      6.84765489	      0.00000000	      2.20711285	      1.87963047	     13.96448655	     16.07643121	      0.28058666	     34.25232022	    -10.19822169	      0.00000000	     -0.19771792	     -0.34393269	     -0.05890991	     -0.36718195	     -0.45743048	     -0.06259178	     -0.32483077	     -0.83623795	     -0.06259178	     -0.22597181	     -0.83623795	     -0.05154617	     -0.18360086	     -0.70134755	     -0.04786430	     -0.11297602	     -0.53275174	     -0.04418243	     -1.41227935	     -3.89063541	     -0.32763924	      0.00000000	      0.00000000	     13.38983508	      2.91842636	    -26.08438013	     71.28515185	    -26.99278119	    -58.72160753	    142.66793766	     88.93505190	    -26.10765029	    -10.53105058	    -28.25279996	    -19.02148383	    171.99276890	      0.43131378	     27.84614329	    -21.54909464	      6.07137223
      1.93617021	     -0.71084691	      0.37657386	    108.20334386	      0.23435138	      0.85690360	      0.73840350	     -1.13069106	      0.09280339	    -13.09172994	     13.31352166	      0.23236479	     35.46453993	      6.31586983	      0.00000000	      3.27827944	      1.44534708	     15.21767585	     16.94461016	      0.29573924	     34.63367609	     -9.89980231	      0.00000000	     -0.21247655	     -0.28310675	     -0.05964626	     -0.39459019	     -0.37653198	     -0.06337415	     -0.34907772	     -0.68834575	     -0.06337415	     -0.24283944	     -0.68834575	     -0.05219048	     -0.19730572	     -0.57731128	     -0.04846258	     -0.12140910	     -0.43853236	     -0.04473469	     -1.51769872	     -3.20256017	     -0.33173459	      0.00000000	      0.00000000	     15.01724357	      2.91790600	    -25.60259068	     73.16908891	    -25.41270406	    -60.01872920	    145.31728467	     88.72155622	    -24.57695330	     -6.87844312	    -26.79882824	    -18.71819322	    181.11211441	      0.38388756	     37.54655700	    -23.38792609	     11.90612103
      1.95744681	     -0.04868600	     -0.04025735	    109.01551459	      0.23426620	      0.85555917	      0.73948849	     -0.73160642	      0.68830135	    -14.25562184	     12.75403833	      0.22259996	     35.57500018	      7.19991770	      0.00000000	      4.15126234	      1.07547332	     16.68246145	     17.21963169	      0.30053927	     34.60268754	    -11.01446326	      0.00000000	     -0.21685367	     -0.26336964	      0.29989118	     -0.40271895	     -0.35028162	      0.31863438	     -0.35626889	     -0.64035694	      0.31863438	     -0.24784206	     -0.64035694	      0.26240479	     -0.20137032	     -0.53706337	      0.24366159	     -0.12391019	     -0.40795957	      0.22491839	     -1.54896407	     -2.97929003	      1.66790480	      0.00000000	      0.00000000	     16.26244080	      2.98577227	    -27.69757814	     74.14055442	    -24.51489347	    -61.10220217	    146.68054188	     88.76077960	    -22.98541635	     -5.53221198	    -25.13219379	    -19.16465508	    180.27947438	      0.39940946	     52.27085450	    -22.15454510	     14.86370217
      1.97872340	      0.35610571	     -0.58805219	    110.14764266	      0.23524688	      0.85365987	      0.74100168	     -0.26104421	      1.13902943	    -14.90681354	     12.19464892	      0.21283677	     35.58369818	      6.88819566	      0.00000000	      5.30057327	      0.90103946	     17.65346619	     17.78510143	      0.31040858	     34.95551696	    -10.88301343	      0.00000000	     -0.24867188	     -0.29272745	      0.79517910	     -0.46180855	     -0.38932751	      0.84487779	     -0.40854304	     -0.71173753	      0.84487779	     -0.28420709	     -0.71173753	      0.69578171	     -0.23091671	     -0.59692982	      0.64608302	     -0.14209111	     -0.45343483	      0.59638432	     -1.77623839	     -3.31139150	      4.42254759	      0.00000000	      0.00000000	     18.17394841	      3.52626610	    -30.06007783	     73.79215942	    -23.63823211	    -60.18480897	    146.51556389	     88.92596711	    -22.45479143	     -5.98144195	    -22.59821070	    -20.60215141	    181.75341465	      0.42739579	     53.88914769	    -19.73291762	     12.03560512
      2.00000000	      0.75131209	     -1.32671801	    111.10346562	      0.23670763	      0.85118383	      0.74197526	      0.32914046	      1.49290880	    -15.60648359	     11.56682840	      0.20187924	     35.58017362	      6.98489874	      0.00000000	      6.52252174	      0.89824173	     19.15228935	     18.21832356	      0.31796973	     35.14193126	    -11.74425507	      0.00000000	     -0.26286076	     -0.34260215	      1.39658799	     -0.48815871	     -0.45566086	      1.48387474	     -0.43185394	     -0.83300287	      1.48387474	     -0.30042356	     -0.83300287	      1.22201450	     -0.24409250	     -0.69863431	      1.13472775	     -0.15019864	     -0.53069073	      1.04744100	     -1.87758810	     -3.87558406	      7.76740345	      0.00000000	      0.00000000	     19.94418151	      3.27071646	    -33.74811981	     71.32703052	    -22.29095844	    -57.26873002	    144.09201543	     89.05489322	    -22.91049299	     -8.03024328	    -19.77187429	    -22.37250768	    180.45742495	      0.51883370	     49.90947142	    -16.56048616	      6.73335626
      2.02127660	      1.05470919	     -2.11615353	    112.12089260	      0.23875587	      0.84878896	      0.74294021	      0.89598335	      1.77748385	    -16.33191055	     10.84574912	      0.18929403	     35.49976054	      6.96318762	      0.00000000	      7.81274357	      0.93966102	     20.12042472	     18.68547521	      0.32612306	     35.32739986	    -11.88211813	      0.00000000	     -0.27842754	     -0.40767397	      1.75525750	     -0.51706778	     -0.54220637	      1.86496109	     -0.45742860	     -0.99121848	      1.86496109	     -0.31821483	     -0.99121848	      1.53585031	     -0.25854781	     -0.83132875	      1.42614672	     -0.15909350	     -0.63148697	      1.31644312	     -1.98878006	     -4.61168944	      9.76221562	      0.00000000	      0.00000000	     21.70722301	      3.31378249	    -36.16640393	     67.24360491	    -19.21170950	    -50.96678979	    138.61656045	     89.16545115	    -25.64820352	    -12.65702511	    -17.58860980	    -24.27875646	    178.22623582	      0.87170777	     19.06461972	    -10.05272663	     -0.70214213
      2.04255319	      1.42324584	     -2.74517307	    112.93422261	      0.24069206	      0.84735249	      0.74422736	      1.36045977	      2.12168769	    -17.02119916	     10.12015690	      0.17663006	     35.15603581	      7.10870394	      0.00000000	      8.89223538	      0.85776048	     20.85210105	     18.95906635	      0.33089813	     35.36203934	    -11.87618002	      0.00000000	     -0.29352385	     -0.43866887	      1.79422481	     -0.54510314	     -0.58342960	      1.90636386	     -0.48223033	     -1.06657949	      1.90636386	     -0.33546841	     -1.06657949	      1.56994671	     -0.27256625	     -0.89453356	      1.45780766	     -0.16771953	     -0.67949808	      1.34566861	     -2.09661150	     -4.96231001	      9.97894014	      0.00000000	      0.00000000	     23.02638341	      3.67356302	    -36.56269282	     63.25382156	    -14.86730748	    -41.64856200	    129.97427600	     89.21864216	    -28.35794584	    -16.39088135	    -16.71390615	    -25.08085125	    159.98924935	      2.55381769	      3.33894698	     -4.86705052	     -5.61310752
